<svg xmlns="http://www.w3.org/2000/svg"  xmlns:xlink="http://www.w3.org/1999/xlink" viewBox="0 0 12 9">
  <path  d="M1.341,5.301 L9.328,5.301 L6.929,7.702 C6.678,7.953 6.678,8.362 6.929,8.614 C7.181,8.866 7.589,8.866 7.841,8.614 L11.340,5.112 C11.461,4.991 11.529,4.827 11.529,4.656 C11.529,4.485 11.461,4.321 11.340,4.200 L7.841,0.698 C7.715,0.572 7.550,0.509 7.385,0.509 C7.220,0.509 7.055,0.572 6.929,0.698 C6.678,0.950 6.678,1.358 6.929,1.610 L9.328,4.011 L1.341,4.011 C0.985,4.011 0.696,4.300 0.696,4.656 C0.696,5.012 0.985,5.301 1.341,5.301 Z"/>
</svg>


